{"title":"The Change Up 2011 TS XViD - IMAGiNE","uid":6604859,"size":1482113265,"categoryP":"video","categoryS":"movies","magnet":"?xt=urn:btih:fc76b4d50740d243825fdeedee456b81ce7c7219&amp;dn=The+Change+Up+2011+TS+XViD+-+IMAGiNE&amp;tr=udp%3A%2F%2Ftracker.openbittorrent.com%3A80&amp;tr=udp%3A%2F%2Fopen.demonii.com%3A1337&amp;tr=udp%3A%2F%2Ftracker.coppersurfer.tk%3A6969&amp;tr=udp%3A%2F%2Fexodus.desync.com%3A6969","seeders":0,"leechers":0,"uploader":"DibyaTPB","files":6,"time":1313355376,"description":" \n\nooooo ooo        ooooo       .o.         .oooooo.     o8o  ooooo      ooo oooooooooooo\n\n     888' `88.       .888'      .888.       d8P'  `Y8b    `&quot;'  `888b.     `8' `888'     `8\n\n     888   888b     d'888      .8&quot;888.     888           oooo   8 `88b.    8   888        \n\n     888   8 Y88. .P  888     .8' `888.    888           `888   8   `88b.  8   888oooo8    \n\n     888   8  `888'   888    .88ooo8888.   888     ooooo  888   8     `88b.8   888    &quot;    \n\n     888   8    Y     888   .8'     `888.  `88.    .88'   888   8       `888   888       o\n\n    o888o o8o        o888o o88o     o8888o  `Y8bood8P'   o888o o8o        `8  o888ooooood8                                                \n\n\n\n\n\n\n\n                 Another Fine Release Brought to you from - IMAGiNE                      \n\n                                                                                         \n\n\n\n******************************************************************************************\n\n                       The Change Up 2011 TS XViD - IMAGiNE                              \n\n******************************************************************************************\n\n\n\nRipper ...........: IMAGiNE              IMDB Rating.......: 6.1/10                            \n\nVideo Codec.......: XViD                 Release Date......: 14/08/11\n\nAudio Codec.......: MP3                  Theatre Date......: 05/08/11\n\nAudio Bitrate.....: 128                  Runtime...........: 1h 46mn\n\nSubtitles.........: NIL                  Language..........: ENGLISH\n\nResolution........: 640 x 288            IMDb URL..........: http://www.imdb.com/title/tt1488555/\n\n\n\n\n\nDETAILS:\n\n\n\nVideo\nID                               : 0\nFormat                           : MPEG-4 Visual\nFormat profile                   : Advanced Simple@L5\nFormat settings, BVOP            : 2\nFormat settings, QPel            : No\nFormat settings, GMC             : No warppoints\nFormat settings, Matrix          : Default (MPEG)\nMuxing mode                      : Packed bitstream\nCodec ID                         : XVID\nCodec ID/Hint                    : XviD\nDuration                         : 1h 46mn\nBit rate                         : 1 697 Kbps\nWidth                            : 640 pixels\nHeight                           : 288 pixels\nDisplay aspect ratio             : 2.222\nFrame rate                       : 29.000 fps\nColor space                      : YUV\nChroma subsampling               : 4:2:0\nBit depth                        : 8 bits\nScan type                        : Progressive\nCompression mode                 : Lossy\nBits/(Pixel*Frame)               : 0.318\nStream size                      : 1.27 GiB (92%)\nWriting library                  : XviD 64\n\nAudio\nID                               : 1\nFormat                           : MPEG Audio\nFormat version                   : Version 1\nFormat profile                   : Layer 3\nMode                             : Joint stereo\nMode extension                   : MS Stereo\nCodec ID                         : 55\nCodec ID/Hint                    : MP3\nDuration                         : 1h 46mn\nBit rate mode                    : Constant\nBit rate                         : 128 Kbps\nChannel(s)                       : 2 channels\nSampling rate                    : 44.1 KHz\nCompression mode                 : Lossy\nStream size                      : 97.9 MiB (7%)\nAlignment                        : Split accross interleaves\nInterleave, duration             : 34 ms (1.00 video frame)\n\n\n\nSOURCES:\n\n\n\nVIDEO: ............... The Change Up 2011 CAM XviD ERDNA Thanks\n\nAUDIO: ............... Thanks Matey\n\n\n\nNOTES:\n\nOk heres another one........\nFirst we made a script to crop\nresize and sharpen\nThen we made some adjustments\nto the colors as\nthey were off.......\nAudio is nice LiNE we filtered\nsynced and muxed to\nour encode\n\nEnjoy!\n\n\n\nSCREENS:\n\n\n","torrent":{"xt":"urn:btih:fc76b4d50740d243825fdeedee456b81ce7c7219","amp;dn":"The+Change+Up+2011+TS+XViD+-+IMAGiNE","amp;tr":["udp%3A%2F%2Ftracker.openbittorrent.com%3A80","udp%3A%2F%2Fopen.demonii.com%3A1337","udp%3A%2F%2Ftracker.coppersurfer.tk%3A6969","udp%3A%2F%2Fexodus.desync.com%3A6969"],"infoHash":"fc76b4d50740d243825fdeedee456b81ce7c7219","infoHashBuffer":{"type":"Buffer","data":[252,118,180,213,7,64,210,67,130,95,222,237,238,69,107,129,206,124,114,25]},"announce":[],"urlList":[]}}